<?xml version="1.0" standalone="no"?>
<!DOCTYPE svg PUBLIC "-//W3C//DTD SVG 20010904//EN"
 "http://www.w3.org/TR/2001/REC-SVG-20010904/DTD/svg10.dtd">
<svg version="1.0" xmlns="http://www.w3.org/2000/svg"
 width="64.000000pt" height="64.000000pt" viewBox="0 0 64.000000 64.000000"
 preserveAspectRatio="xMidYMid meet">

<g transform="translate(0.000000,64.000000) scale(0.100000,-0.100000)"
fill="#000000" stroke="none">
<path d="M261 560 c-22 -28 -45 -66 -52 -84 -7 -19 -20 -37 -29 -39 -22 -6
-53 -72 -45 -98 5 -13 10 -17 18 -11 7 5 19 10 27 10 8 0 42 10 75 22 40 14
69 18 90 13 16 -3 35 -7 40 -8 33 -4 95 -42 95 -57 0 -33 17 -19 23 19 7 42
-17 103 -43 110 -9 2 -22 20 -29 39 -18 49 -88 134 -111 134 -12 0 -36 -21
-59 -50z"/>
<path d="M220 275 c0 -25 5 -45 10 -45 6 0 10 20 10 45 0 25 -4 45 -10 45 -5
0 -10 -20 -10 -45z"/>
<path d="M400 275 c0 -25 5 -45 10 -45 6 0 10 20 10 45 0 25 -4 45 -10 45 -5
0 -10 -20 -10 -45z"/>
<path d="M240 140 c0 -29 110 -42 146 -16 28 21 11 30 -30 15 -29 -10 -43 -11
-69 -1 -40 15 -47 15 -47 2z"/>
</g>
</svg>
